<?xml version="1.0" encoding="UTF-8"?>
<svg width="173.650356px" height="30.2218424px" viewBox="0 0 173.650356 30.2218424" version="1.1" xmlns="http://www.w3.org/2000/svg" xmlns:xlink="http://www.w3.org/1999/xlink">
    <title>Group 2749</title>
    <g id="页面-1" stroke="none" stroke-width="1" fill="none" fill-rule="evenodd">
        <g id="Group-2748" transform="translate(1.6504, 2.2218)">
            <polygon id="路径" fill="#403D3C" fill-rule="nonzero" points="62.9324487 2.52243551 56.0581349 21.7819335 53.0028844 21.7819335 50.6296094 15.7289484 48.6109617 9.64844977 46.619593 15.7839756 44.300876 21.7819335 41.2456255 21.7819335 34.2349165 2.52243551 38.2722119 2.52243551 42.7732507 16.4167876 47.4106846 2.52243551 49.7566806 2.52243551 54.5305096 16.4167876 58.8951533 2.52243551"></polygon>
            <path d="M76.1779187,16.1966791 L65.6754949,16.1966791 C65.8937271,17.8750068 67.3395153,19.0856038 69.6855113,19.0856038 C70.9130673,19.0856038 72.5225296,18.6178731 73.2863423,17.8199796 L75.4141061,19.9385244 C73.9955969,21.4242571 71.6768799,22.1396099 69.6309532,22.1396099 C64.9935193,22.1396099 62.238338,19.2506852 62.238338,14.9035414 C62.238338,10.7765061 65.0207983,7.80504068 69.385442,7.80504068 C73.8864808,7.80504068 76.6962202,10.6114247 76.1779187,16.1966791 Z M65.7300529,13.4178087 L72.986273,13.4178087 C72.7680409,11.6569403 71.4040897,10.7765061 69.4945581,10.7765061 C67.6941426,10.7765061 66.2210753,11.6569403 65.7300529,13.4178087 Z" id="形状" fill="#403D3C" fill-rule="nonzero"></path>
            <path d="M93.0378593,5.6864959 L90.1735619,7.1722286 C89.5188653,6.07168586 87.7184498,5.02617025 85.6452441,5.02617025 C82.9718998,5.02617025 81.6897857,6.15422656 81.6897857,7.58493213 C81.6897857,9.26325981 83.6538754,9.73099048 85.9453133,10.0061262 C89.9280507,10.5013704 93.6379978,11.546886 93.6379978,16.141652 C93.6379978,20.4337686 89.8734926,22.2771777 85.617965,22.2771777 C81.7170647,22.2771777 78.7163722,21.0665807 77.297863,17.5448439 L80.2985556,15.9765705 C81.1442053,18.0951153 83.3538061,19.0305766 85.6725231,19.0305766 C87.936682,19.0305766 90.0644458,18.2326832 90.0644458,16.141652 C90.0644458,14.3257564 88.1821932,13.5828901 85.6452441,13.3077544 C81.7443438,12.8400237 78.1435127,11.7945081 78.1435127,7.47487785 C78.1435127,3.51292398 82.017134,1.88962344 85.536128,1.86210987 C88.5095415,1.86210987 91.5920711,2.71503049 93.0378593,5.6864959 Z" id="路径" fill="#403D3C" fill-rule="nonzero"></path>
            <path d="M95.7706758,2.52243551 L99.0988169,2.52243551 L99.0988169,10.0611533 C100.299295,8.49287989 101.771559,8.02514923 103.299987,8.02514923 C107.11905,8.02514923 108.809949,10.6389382 108.809949,14.6284057 L108.809949,21.7819335 L105.482309,21.7819335 L105.482309,14.6559192 C105.482309,12.1796981 104.199593,11.1341825 102.426457,11.1341825 C100.462768,11.1341825 99.0988169,12.8125102 99.0988169,14.8485142 L99.0988169,21.7819335 L95.7706758,21.7819335 L95.7706758,2.52243551 Z" id="路径" fill="#403D3C" fill-rule="nonzero"></path>
            <path d="M117.799991,7.94260852 C122.082397,7.94260852 124.837377,11.1341825 124.837377,15.0135956 C124.837377,18.9205224 122.191713,22.0845828 117.82707,22.0845828 C113.462426,22.0845828 110.84384,18.9205224 110.84384,15.0135956 C110.84384,11.1341825 113.516583,7.94260852 117.799991,7.94260852 Z M117.82707,10.9966146 C115.426114,10.9966146 114.17148,12.9775916 114.17148,15.0135956 C114.17148,17.0771133 115.399036,19.0030631 117.82707,19.0030631 C120.255103,19.0030631 121.482659,17.0771133 121.482659,15.0135956 C121.482659,12.9775916 120.063548,10.9966146 117.82707,10.9966146 Z" id="形状" fill="#403D3C" fill-rule="nonzero"></path>
            <path d="M134.520428,18.8654952 C136.784988,18.8654952 138.339491,17.1321404 138.339491,15.0135956 C138.339491,12.8950509 136.921383,11.161696 134.520428,11.161696 C132.119472,11.161696 130.701364,12.8950509 130.701364,15.0135956 C130.701364,17.1321404 132.255868,18.8654952 134.520428,18.8654952 Z M130.401496,28 L127.072853,28 L127.072853,8.21774421 L130.182862,8.21774421 L130.401496,10.0886669 C131.437497,8.5754206 133.238715,7.91509495 134.766139,7.91509495 C138.91215,7.91509495 141.667131,11.0241282 141.667131,15.0135956 C141.667131,18.9755495 139.18494,22.1120963 134.875456,22.1120963 C133.456345,22.1120963 131.356262,21.6718792 130.401496,20.1861465 L130.401496,28 Z" id="形状" fill="#403D3C" fill-rule="nonzero"></path>
            <polygon id="路径" fill="#7530FE" fill-rule="nonzero" points="172 21.7814277 168.425646 21.7814277 168.425646 2.52197021 172 2.52197021"></polygon>
            <g id="编组" stroke="#7530FE" stroke-width="3.3">
                <path d="M5.22250221,5.93488678 C2.97424938,6.4794329 0.951640209,9.09049078 2.03424635,11.4474528 C2.36373081,12.1651321 2.97563339,12.7194496 3.65537249,13.1145525 C5.72919001,14.316855 8.01344714,14.5667025 10.3322744,14.790149 C12.1901564,14.9688861 14.0521503,15.23421 15.9072241,15.4380329 C17.1850257,15.5776238 18.8062221,15.8694497 19.8209616,16.7519069 C20.8066169,17.6106944 21.071083,18.906361 20.5990155,20.1015828 C20.0742955,21.4295171 18.81585,22.3663945 17.5948128,22.997487 C16.4430764,23.5923668 15.192955,23.9595515 13.9497537,24.3240052 C12.2760051,24.8155067 10.6077725,25.3698242 8.9022318,25.6965479 C7.15650471,26.0316672 5.3526392,26.1545678 3.59722404,25.8180324 C2.66275704,25.6392954 1.72413801,25.316719 1.01117266,24.6828954 C0.296823308,24.0475545 -0.154484057,23.0520084 0.0490154487,22.1150298 C0.177768426,21.5216673 0.550167205,21.0063948 0.993180544,20.5930843 C2.255748,19.4146539 4.08176769,19.0013435 5.79564251,19.1409344 C7.50952736,19.2820426 9.14312965,19.9186985 10.7171894,20.6210025 C12.8311131,21.5635446 14.8883727,22.6344495 16.8749274,23.8241079 C18.3562185,24.7121286 19.881838,25.6937156 21.601319,25.7942615 C23.3248117,25.8948074 25.0249367,25.0472479 26.1835931,23.7571447 C27.5652957,22.2184079 28.3973059,20.0471625 28.3529775,17.9680674 C28.2976171,15.4170943 26.9754871,12.9708143 24.8601594,11.5646889 C23.1947349,10.4574701 21.1832078,10.0302005 19.2103929,9.73139509 C16.6825702,9.3488351 14.1310789,9.14217988 11.579688,8.9997567 C10.6077725,8.94523533 9.62903724,8.89921079 8.68490223,8.66605353 C7.74071708,8.43289627 6.81871619,7.99581491 6.16388926,7.26973992 C5.22942226,6.23369222 4.99961655,4.69498579 5.38448144,3.37548764 C5.77349836,2.04483233 6.84778039,1.11629997 8.07297959,0.560576461 C8.3581557,0.430716463 8.65300985,0.320409307 8.95207619,0.225467265 C9.9322155,-0.084515569 11.0051235,-0.0160957978 12.0309953,0.0858359046 C13.0567668,0.187767607 13.9940821,0.559180552 14.9520572,1.00040918 C16.2284547,1.58823859 17.622493,2.36876414 18.6788531,3.32103707" id="路径" stroke-linecap="round"></path>
                <line x1="20.5789574" y1="0.0306266924" x2="9.30720495" y2="19.6637933" id="路径" stroke-linecap="square"></line>
            </g>
            <path d="M161.112157,2.68727098 L161.112157,13.4811558 C161.112157,16.7112461 159.457504,18.6762176 156.548517,18.6762176 C153.63953,18.6762176 151.717997,16.8727506 151.717997,13.4811558 L151.717997,2.68727098 L148.221875,2.68727098 L148.221875,13.4811558 C148.221875,19.1607311 152.038253,21.9063078 156.521829,21.9063078 C161.218909,21.9063078 164.608279,19.0530615 164.608279,13.4811558 L164.608279,2.68727098 L161.112157,2.68727098 Z" id="路径" fill="#7530FE" fill-rule="nonzero"></path>
        </g>
    </g>
</svg>